<?xml version="1.0" encoding="utf-8"?>
<svg width="84px" height="84px" viewbox="0 0 84 84" version="1.1" xmlns:xlink="http://www.w3.org/1999/xlink" xmlns="http://www.w3.org/2000/svg">
  <g id="icon-chart">
    <path d="M11.484 84C12.5205 83.9997 13.3606 83.1596 13.3609 82.1231L13.3609 76.865L82.1231 76.865C83.1597 76.865 84 76.0246 84 74.988C84 73.9514 83.1597 73.1111 82.1231 73.1111L13.3609 73.1111L13.3609 1.87693C13.3609 0.840331 12.5206 0 11.484 0C10.4474 0 9.60705 0.840331 9.60705 1.87693L9.60705 73.1111L1.87693 73.1111C0.840331 73.1111 0 73.9514 0 74.988C0 76.0246 0.840331 76.865 1.87693 76.865L9.60705 76.865L9.60705 82.1231C9.60732 83.1596 10.4475 83.9997 11.484 84Z" id="Shape" fill="#404040" fill-rule="evenodd" stroke="none" />
    <path d="M3.39448 68.4268L17.8786 54.1808L27.2981 64.0477C27.8029 64.5766 28.5553 64.787 29.2602 64.5964C29.9651 64.4058 30.5099 63.8446 30.681 63.1331L41.0155 20.1946L52.6482 30.6777C53.1236 31.1063 53.775 31.2807 54.4002 31.1467C55.0254 31.0126 55.5487 30.5863 55.8075 30.0002L67.8289 2.81119C68.1177 2.15765 68.0368 1.39929 67.6167 0.821781C67.1965 0.244272 66.501 -0.0646528 65.792 0.0113767C65.0831 0.0874062 64.4684 0.536839 64.1796 1.19038L53.272 25.8583L41.1948 14.9738C40.672 14.5023 39.9402 14.3415 39.2686 14.5504C38.5969 14.7594 38.0845 15.3073 37.9198 15.9927L27.6568 58.6355L19.3654 49.9503C18.9961 49.5637 18.4878 49.3413 17.954 49.3327C17.4166 49.3042 16.8939 49.5138 16.5244 49.906L0.597741 65.5708C0.0888624 66.0717 -0.114834 66.8067 0.0633833 67.4989C0.2416 68.1912 0.774655 68.7355 1.46175 68.9269C2.14885 69.1183 2.8856 68.9277 3.39448 68.4268Z" transform="translate(14 7)" id="Shape" fill="#404040" fill-rule="evenodd" stroke="none" />
  </g>
</svg>