<?xml version="1.0" encoding="utf-8"?>
<svg width="86px" height="86px" viewbox="0 0 86 86" version="1.1" xmlns:xlink="http://www.w3.org/1999/xlink" xmlns="http://www.w3.org/2000/svg">
  <g id="icon-cog">
    <path d="M62.083 56.1955L65.2095 58.0025L65.2988 57.8218C69.6759 51.6782 71.9984 44.3601 71.9984 36.6807C72.0877 26.8329 68.4253 17.6176 61.6364 10.7512C54.8474 3.79455 45.736 0 36.0885 0C16.1684 0 0 16.3527 0 36.5C0 56.6473 16.1684 73 36.0885 73C39.5723 73 42.8775 72.5483 46.0039 71.5545L46.1826 71.4641L45.468 67.8503L45.2 67.9406C42.1628 68.8441 39.0364 69.3861 35.9099 69.3861C18.0443 69.3861 3.48379 54.6597 3.48379 36.5903C3.48379 18.521 18.0443 3.79455 35.9099 3.79455C53.7755 3.79455 68.336 18.521 68.336 36.5903C68.336 43.547 66.1921 50.2327 62.083 56.0149L62.083 56.1955Z" transform="translate(7 6)" id="Shape" fill="#404040" fill-rule="evenodd" stroke="none" />
    <path d="M73.5823 12.6812C65.4561 4.46521 54.6509 0 43.1314 0C39.1129 0 35.2731 0.535826 31.6118 1.60748L31.4332 1.60748L32.0583 4.91173L32.3262 4.91173C35.8982 3.92939 39.5594 3.39356 43.1314 3.39356C65.0096 3.39356 82.8694 21.1651 82.8694 43.134C82.8694 65.1028 65.0096 82.785 43.1314 82.785C21.2531 82.6957 3.39336 64.8349 3.39336 42.9553C3.39336 34.6501 5.89373 26.7913 10.7159 20.0042L10.8945 19.8255L7.9476 18.1288L7.8583 18.3074C2.76827 25.541 0 34.1142 0 43.0447C0 66.7103 19.2886 86 42.9528 86C66.7063 86 85.9948 66.7103 85.9948 43.0447C86.1734 31.6137 81.7085 20.8079 73.5823 12.6812Z" id="Shape" fill="#404040" fill-rule="evenodd" stroke="none" />
    <path d="M37.7477 16.3548L34.617 16.3548C34.1697 14.4677 33.4541 12.7604 32.4702 11.1429L34.9748 8.62673C35.1537 8.44701 35.2431 8.17742 35.2431 7.90783C35.2431 7.63825 35.1537 7.36866 34.9748 7.18894L31.4862 3.68433C31.1284 3.32488 30.5023 3.32488 30.1445 3.68433L27.5505 6.29032C26.1193 5.39171 24.5092 4.76267 22.8991 4.31336L22.8991 0.988479C22.8991 0.449309 22.4518 0 21.9151 0L17.0849 0C16.5482 0 16.1009 0.449309 16.1009 0.988479L16.1009 4.2235C14.3119 4.58295 12.7018 5.30184 11.2706 6.20046L8.49771 3.41475C8.13991 3.0553 7.51376 3.0553 7.15596 3.41475L3.66743 6.91935C3.48853 7.09908 3.39908 7.36866 3.39908 7.63825C3.39908 7.90783 3.48853 8.17742 3.66743 8.35714L6.35092 11.053C5.27752 12.6705 4.56193 14.3779 4.11468 16.3548L0.983945 16.3548C0.447248 16.3548 0 16.8041 0 17.3433L0 22.1959C0 22.735 0.447248 23.1843 0.983945 23.1843L4.11468 23.1843C4.47248 24.8917 5.18807 26.5092 6.08257 27.947L3.57798 30.4631C3.39908 30.6429 3.30963 30.9124 3.30963 31.182C3.30963 31.4516 3.39908 31.7212 3.57798 31.9009L7.06651 35.4055C7.24541 35.5853 7.51376 35.6751 7.78211 35.6751C8.05046 35.6751 8.31881 35.5853 8.49771 35.4055L10.9128 32.9793C12.5229 34.0576 14.3119 34.7765 16.2798 35.2258L16.2798 38.0115C16.2798 38.5507 16.7271 39 17.2638 39L22.094 39C22.6307 39 23.078 38.5507 23.078 38.0115L23.078 35.1359C24.9564 34.6866 26.656 33.9677 28.1766 32.9793L30.2339 35.0461C30.4128 35.2258 30.6812 35.3157 30.9495 35.3157C31.2179 35.3157 31.4862 35.2258 31.6651 35.0461L35.0642 31.6313C35.2431 31.4516 35.3326 31.182 35.3326 30.9124C35.3326 30.6429 35.2431 30.3733 35.0642 30.1935L32.9174 28.0369C33.8119 26.5991 34.4381 24.9816 34.8853 23.1843L38.0161 23.1843C38.5528 23.1843 39 22.735 39 22.1959L39 17.3433C38.7317 16.8041 38.2844 16.3548 37.7477 16.3548ZM19.3211 29.3848C14.0436 29.3848 9.75 25.0714 9.75 19.7696C9.75 14.4677 14.0436 10.0645 19.3211 10.0645C24.5986 10.0645 28.8922 14.3779 28.8922 19.6797C28.8922 24.9816 24.6881 29.3848 19.3211 29.3848Z" transform="translate(24 24)" id="Shape" fill="#404040" stroke="none" />
  </g>
</svg>