<?xml version="1.0" encoding="utf-8"?>
<svg width="149px" height="85px" viewbox="0 0 149 85" version="1.1" xmlns:xlink="http://www.w3.org/1999/xlink" xmlns="http://www.w3.org/2000/svg">
  <g id="icon-laptop">
    <path d="M51.0372 79.5527C51.0372 79.6873 51.3972 80 51.9943 80L69.0057 80C69.5998 80 69.9613 79.6873 69.9613 79.5527C69.9613 78.9647 70.4383 78.486 71.0294 78.486L121 78.486L121 4.8877C121 2.19326 118.801 0 116.099 0L4.89941 0C2.19768 0 0 2.19176 0 4.8877L0 78.4875L49.9706 78.4875C50.5602 78.486 51.0372 78.9662 51.0372 79.5527ZM3.02425 4.8877C3.02425 3.8569 3.86582 3.0176 4.89941 3.0176L116.098 3.0176C117.131 3.0176 117.974 3.8569 117.974 4.8877L117.974 76.3421L3.02425 76.3421L3.02425 4.8877Z" transform="translate(15 0)" id="Shape" fill="#404040" stroke="none" />
    <path d="M141.461 5C146.284 5 148.961 3.08407 148.961 3.08407L149 3.07798L149 0L85.0151 0C85.0151 0.845263 84.1089 1.53823 82.9979 1.53823L66.041 1.53823C64.9314 1.53823 64.0238 0.845263 64.0238 0L0.0388784 0L0.0388784 3.07798L0 3.08407C0 3.08407 2.67812 5 7.50204 5L141.461 5Z" transform="translate(0 80)" id="Shape" fill="#404040" fill-rule="evenodd" stroke="none" />
  </g>
</svg>