<?xml version="1.0" encoding="utf-8"?>
<svg width="84px" height="86px" viewbox="0 0 84 86" version="1.1" xmlns:xlink="http://www.w3.org/1999/xlink" xmlns="http://www.w3.org/2000/svg">
  <g id="icon-paint">
    <path d="M0.635304 0C0.486836 0.518378 0.177347 1.48464 0 2L0.938695 1.20348C0.844765 0.894427 0.71928 0.292779 0.635304 0L0.635304 0Z" transform="translate(14 0)" id="Shape" fill="#000000" fill-rule="evenodd" stroke="none" />
    <path d="M4.61039 0L1.45021 3.11749C0.992184 4.12788 0.509179 5.09115 0 6L5 1.08094C4.86554 0.728289 4.73663 0.365693 4.61039 0L4.61039 0Z" transform="translate(11 4)" id="Shape" fill="#000000" fill-rule="evenodd" stroke="none" />
    <path d="M14.5734 1.70574e-15L2.76605 11.845C1.74858 13.2355 0.806247 14.6013 0 16L15 0.950263C14.8527 0.642668 14.715 0.318076 14.5734 1.70574e-15Z" transform="translate(2 7)" id="Shape" fill="#000000" fill-rule="evenodd" stroke="none" />
    <path d="M18.4496 0L0.33333 18.1651C0.188771 18.7584 0.0765295 19.3671 0 20L19 0.983061C18.8134 0.663739 18.6313 0.330756 18.4496 0Z" transform="translate(0 9)" id="Shape" fill="#000000" fill-rule="evenodd" stroke="none" />
    <path d="M20.4131 0L0 19.6868C0.0245135 20.1261 0.0711487 20.5647 0.131516 21L21 0.842982C20.8041 0.56178 20.6067 0.289714 20.4131 3.33516e-15L20.4131 0Z" transform="translate(0 12)" id="Shape" fill="#000000" fill-rule="evenodd" stroke="none" />
    <path d="M21.3791 0L0 20.928C0.105436 21.289 0.219369 21.6478 0.350346 22L22 0.835735C21.792 0.557294 21.5877 0.285261 21.3791 0Z" transform="translate(0 15)" id="Shape" fill="#000000" fill-rule="evenodd" stroke="none" />
    <path d="M22.3892 0L0 22.1101C0.162414 22.4124 0.33686 22.7092 0.519612 23L23 0.826655C22.7963 0.554496 22.5968 0.276141 22.3892 9.71235e-07L22.3892 0Z" transform="translate(2 17)" id="Shape" fill="#000000" fill-rule="evenodd" stroke="none" />
    <path d="M22.4126 0L0 22.2487C0.220531 22.5084 0.458152 22.7556 0.698161 23L23 0.826668C22.8105 0.55121 22.61 0.276278 22.4126 9.73579e-07L22.4126 0Z" transform="translate(3 20)" id="Shape" fill="#000000" fill-rule="evenodd" stroke="none" />
    <path d="M21.4953 3.40684e-15L0 21.4455C0.263731 21.6437 0.549588 21.8193 0.83078 22L22 0.907961C21.8328 0.604591 21.6765 0.299998 21.4953 3.40684e-15Z" transform="translate(5 22)" id="Shape" fill="#000000" fill-rule="evenodd" stroke="none" />
    <path d="M20.5858 0L0 20.5935C0.338041 20.7441 0.695821 20.8731 1.05316 21L21 1.04203C20.8772 0.688835 20.7306 0.343884 20.5858 0Z" transform="translate(8 25)" id="Shape" fill="#000000" fill-rule="evenodd" stroke="none" />
    <path d="M17.8249 0L0 17.8056C0.414788 17.8834 0.83612 17.9534 1.27224 18L18 1.26391C17.9588 0.833947 17.9003 0.411603 17.8249 6.7853e-15L17.8249 0Z" transform="translate(11 28)" id="Shape" fill="#000000" fill-rule="evenodd" stroke="none" />
    <path d="M14 0L0 14C0.546684 13.9689 1.07917 13.9116 1.59956 13.8264L13.7605 1.6676C13.8689 1.1162 13.9507 0.5592 14 0L14 0Z" transform="translate(16 32)" id="Shape" fill="#000000" fill-rule="evenodd" stroke="none" />
    <path d="M7 0L0 7C3.05919 5.42916 5.4451 2.93596 7 0Z" transform="translate(21 38)" id="Shape" fill="#000000" fill-rule="evenodd" stroke="none" />
    <path d="M15 0C12.6172 8.44776 9.61465 12.6864 5.99216 17.5017C2.89555 21.618 0.0626818 25.387 0.00103447 30.8664C-0.0412972 34.6313 1.21572 38.4035 3.74343 41.253C6.27112 44.1024 10.0875 46 15 46C19.9125 46 23.7289 44.1024 26.2566 41.253C28.7843 38.4035 30.0413 34.6313 29.999 30.8664C29.9373 25.387 27.1044 21.618 24.0078 17.5017C20.3854 12.6864 17.3828 8.44776 15 0ZM15 4.24317C17.044 10.4721 20.0859 14.6499 22.8761 18.3259C25.9856 22.4225 28.5315 25.8567 28.588 30.8826C28.6268 34.3352 27.467 37.7824 25.1928 40.346C22.9187 42.9097 19.5461 44.618 15 44.618C10.4539 44.618 7.08135 42.9097 4.80717 40.346C2.53301 37.7824 1.37318 34.3352 1.41201 30.8826C1.46856 25.8567 4.01438 22.4225 7.12389 18.3259C9.91408 14.6499 12.956 10.4721 15 4.24317L15 4.24317Z" transform="translate(27 40)" id="Shape" fill="#000000" stroke="none" />
    <path d="M14.9925 9.25071e-15C11.2475 15.3333 0.125016 19.5076 0.00103838 30.6667C-0.0841309 38.3334 5.07128 46 14.9925 46C24.1768 46 30 38.3333 30 30.6667C30 19.7504 18.7432 15.3333 14.9925 9.25071e-15Z" transform="translate(54 0)" id="Shape" fill="#000000" fill-rule="evenodd" stroke="none" />
  </g>
</svg>